<?xml version="1.0" encoding="utf-8"?>
<!-- Generator: Adobe Illustrator 21.0.0, SVG Export Plug-In . SVG Version: 6.00 Build 0)  -->
<svg version="1.1" id="Layer_1" xmlns="http://www.w3.org/2000/svg" xmlns:xlink="http://www.w3.org/1999/xlink" x="0px" y="0px"
	 viewBox="0 0 395 54" style="enable-background:new 0 0 395 54;" xml:space="preserve">
<style type="text/css">
	.st0{fill:#949599;}
	.st1{fill:#2F3238;}
	.st2{fill:#FDB833;}
</style>
<g>
	<g id="XMLID_1_">
		<g>
			<path class="st0" d="M391.3,32.5c1.7,1.5,2.5,4.1,2.5,7.9c0,3.8-1.2,6.6-3.6,8.4c-2.4,1.8-6,2.7-10.6,2.7
				c-3.7-0.1-7.4-0.5-11.1-1.2l-2.2-0.4l0.3-6.6c4.1,0.6,8.3,1,12.5,1.2c1.9,0.1,3.7-0.2,5.4-0.9c1.1-0.6,1.7-1.8,1.6-3.1
				c0.1-1.2-0.5-2.4-1.6-3c-1-0.5-3.5-1.1-7.4-1.8c-3.9-0.6-6.8-1.7-8.6-3.1c-1.8-1.4-2.7-3.9-2.7-7.6c0-3.7,1.3-6.4,3.8-8.3
				c2.9-1.9,6.3-2.9,9.7-2.7c3.8,0.1,7.6,0.5,11.3,1.2l2.2,0.4l-0.1,6.6c-4.1-0.6-8.2-1-12.3-1.2c-2.5,0-4.3,0.3-5.3,0.9
				c-1,0.6-1.5,1.7-1.5,2.8c-0.1,1.2,0.6,2.3,1.6,2.7c2.5,0.9,5,1.5,7.6,1.8C386.7,30,389.6,31.1,391.3,32.5z"/>
			<path class="st0" d="M357.3,18.3c2.3,2.8,3.4,7.6,3.4,14.7c0,7-1.3,11.9-4,14.6c-2.7,2.8-7.4,4.1-14.1,4.1c-2.3,0-6-0.2-11-0.6
				l-2.5-0.2V0h8v16.3c2.9-1.3,6-2.1,9.3-2.2C351.4,14.2,355,15.6,357.3,18.3z M352,32.6c0-4.3-0.5-7.3-1.6-9.1
				c-1.1-1.8-3.2-2.8-5.3-2.6c-2.3,0-4.7,0.4-6.9,1.1l-1.1,0.4v21.9c2.6,0.2,4.4,0.3,5.4,0.3c3.8,0,6.4-0.9,7.7-2.7
				C351.3,40,352,36.9,352,32.6z"/>
			<path class="st0" d="M322.3,45.9L322,52c-4.3,0-7.5-0.9-9.9-2.7c-3.7,1.8-7.8,2.7-11.9,2.7c-7.4,0-11-3.9-11-11.8
				c0-3.8,1-6.5,3-8.2c2-1.7,5.1-2.7,9.2-3l9.6-0.8v-2.7c0-2-0.4-3.4-1.3-4.1c-1.1-0.9-2.4-1.3-3.8-1.2c-3.2,0-7.1,0.2-11.9,0.6
				l-2.4,0.1l-0.3-5.7c4.9-1.2,9.9-1.9,14.9-1.9c4.5,0,7.8,1,9.8,2.9s3,5,3,9.3v16.9c0,0.9,0.3,1.7,0.9,2.4
				C320.5,45.5,321.4,45.8,322.3,45.9z M311,43.5v-9.6l-8.4,0.8c-3.3,0.3-5,2.1-5,5.4c0,3.3,1.5,5,4.4,5c2.6,0,5.1-0.4,7.6-1.2
				L311,43.5z"/>
			<rect x="275" class="st0" width="8" height="51"/>
			<rect x="255" class="st1" width="10" height="50"/>
			<path class="st1" d="M247.8,30.3l-0.7,6.7h-21.2c0.1,2.2,0.6,3.8,1.8,4.8c1.4,1.1,3.1,1.6,4.9,1.5c4.5,0,8.5-0.1,12-0.4l2-0.2
				l0.2,7.1c-4.9,1.3-9.9,1.9-15,2c-5.4,0-9.4-1.4-11.8-4.3c-2.4-2.9-3.7-7.6-3.7-14c0-12.9,5.3-19.4,15.9-19.4
				C242.6,14,247.8,19.5,247.8,30.3z M225.8,29h12.5c0-2.9-0.5-4.9-1.4-6c-0.9-1.1-2.5-1.7-4.8-1.7s-3.9,0.6-4.8,1.8
				C226.4,24.2,225.9,26.2,225.8,29z"/>
			<path class="st1" d="M210,31.5V51h-10V31.2c-0.1-2.3-0.5-4.6-1.3-6.8c-0.7-1.5-2.2-2.2-4.3-2.2c-1.9,0-3.9,0.3-5.7,1l-0.7,0.3V50
				h-10V14h10v3c2.7-1.7,5.9-2.7,9.1-2.9c4.9,0,8.2,1.4,10.1,4.2S210,25.6,210,31.5z"/>
			<rect x="159" y="14" class="st1" width="10" height="36"/>
			<rect x="159" class="st1" width="10" height="10"/>
			<path class="st1" d="M153.8,42.9l0.4,7.7c-2.5,0.6-5,1-7.6,1.1c-4.5,0-7.5-1-9.2-2.9c-1.6-1.9-2.5-5.5-2.5-10.8V23h-4v-8h4V4h10
				v11h8v8h-8v14.8c0,1,0,2.1,0.1,3.1c0.1,0.6,0.4,1.2,0.8,1.5c0.6,0.5,1.4,0.7,2.2,0.7L153.8,42.9z"/>
			<path class="st1" d="M125,31.5V51h-10V31.2c0.3-2.3-0.1-4.6-0.9-6.8c-0.7-1.5-2.2-2.2-4.3-2.2c-1.9,0-3.9,0.3-5.7,1l-1.1,0.3V50
				H93V14h10v3c2.7-1.7,5.9-2.7,9.1-2.9c4.9,0,8.2,1.4,10.1,4.2S125,25.6,125,31.5z"/>
			<path class="st1" d="M86.7,30.3L85.9,37H64.8c0,2.2,0.6,3.8,1.8,4.8c1.4,1.1,3.1,1.6,4.9,1.5c4.5,0,8.5-0.1,12-0.4l2-0.2l0.1,7.1
				c-4.9,1.3-9.9,1.9-15,2c-5.4,0-9.4-1.4-11.8-4.3c-2.5-2.9-3.7-7.6-3.7-14C55,20.5,60.3,14,71,14C81.4,14,86.7,19.5,86.7,30.3z
				 M77.1,29c0-2.9-0.4-4.9-1.4-6c-0.9-1.1-2.5-1.7-4.8-1.7s-3.9,0.6-4.8,1.8c-0.9,1.2-1.4,3.2-1.5,5.9H77.1z"/>
			<rect x="2" y="3.8" class="st1" width="48" height="48"/>
			<path class="st2" d="M33.5,51C43.2,51,48,47.1,48,39.3c0-3.6-0.8-6.1-2.5-7.7c-1.6-1.6-4.4-2.7-8.3-3.4c-2.4-0.4-4.8-0.9-7.2-1.6
				c-0.9-0.3-1.4-1.1-1.4-1.9c-0.1-0.8,0.4-1.6,1-2.1c0.7-0.4,2.2-0.6,4.6-0.6c4.2,0.2,8.3,0.5,12.5,1.1l0.1-8l-2.4-0.4
				c-3.8-0.8-7.7-1.3-11.6-1.4c-3.6-0.2-7.1,0.9-10,2.9c-2.6,2-3.9,4.8-3.9,8.6c0,3.8,0.9,6.5,2.7,8c1.8,1.5,4.6,2.5,8.3,3.2
				c2.3,0.3,4.7,0.8,6.9,1.6c0.8,0.3,1.3,1.1,1.3,2c0,0.9-0.5,1.7-1.3,2.1c-1.5,0.6-3.1,0.8-4.8,0.7c-4.2-0.2-8.3-0.5-12.4-1.2
				l-0.3,8.1l2.3,0.4C25.8,50.5,29.6,50.9,33.5,51z M50,53H2c-1.1,0-2-0.9-2-2V3c0-1.1,0.9-2,2-2h48c1.1,0,2,0.9,2,2v48
				C52,52.1,51.1,53,50,53z"/>
		</g>
	</g>
</g>
</svg>
